<?xml version="1.0" ?><svg viewBox="0 0 24 24" xmlns="http://www.w3.org/2000/svg"><title/><g data-name="Google Plus" id="Google_Plus"><path d="M12,0A12,12,0,1,0,24,12,12,12,0,0,0,12,0Zm2,12a6,6,0,1,1-1.76-4.24.5.5,0,0,1,0,.71L10.83,9.88a.51.51,0,0,1-.71,0A3,3,0,1,0,8,15a3,3,0,0,0,2.6-1.5H8a.5.5,0,0,1-.5-.5V11a.5.5,0,0,1,.5-.5h5.5a.5.5,0,0,1,.5.5Zm7.5,1.5H20V15a.5.5,0,0,1-.5.5h-2A.5.5,0,0,1,17,15V13.5H15.5A.5.5,0,0,1,15,13V11a.5.5,0,0,1,.5-.5H17V9a.5.5,0,0,1,.5-.5h2A.5.5,0,0,1,20,9v1.5h1.5a.5.5,0,0,1,.5.5v2A.5.5,0,0,1,21.5,13.5Z" style="fill:#303c42"/></g></svg>