<?xml version="1.0" ?><svg viewBox="0 0 24 24" xmlns="http://www.w3.org/2000/svg"><title/><g id="Instagram"><path d="M17,23H7a6,6,0,0,1-6-6V7A6,6,0,0,1,7,1H17a6,6,0,0,1,6,6V17A6,6,0,0,1,17,23ZM7,3A4,4,0,0,0,3,7V17a4,4,0,0,0,4,4H17a4,4,0,0,0,4-4V7a4,4,0,0,0-4-4Z" style="fill:#303c42"/><g data-name="&lt;Group&gt;" id="_Group_"><path d="M12,18a6,6,0,1,1,6-6A6,6,0,0,1,12,18ZM12,8a4,4,0,1,0,4,4A4,4,0,0,0,12,8Z" style="fill:#303c42"/></g><g data-name="&lt;Group&gt;" id="_Group_2"><circle cx="18" cy="5" r="1" style="fill:#303c42"/></g></g></svg>