<?xml version="1.0" ?><svg viewBox="0 0 24 24" xmlns="http://www.w3.org/2000/svg"><title/><g id="Skype"><path d="M22.92,13.26A10.41,10.41,0,0,0,23,12,11,11,0,0,0,12,1a10.54,10.54,0,0,0-1.26.08,7,7,0,0,0-9.66,9.66A10.41,10.41,0,0,0,1,12,11,11,0,0,0,12,23a10.54,10.54,0,0,0,1.26-.08,7,7,0,0,0,9.66-9.66ZM12,20c-3.42,0-6-1.68-6-3.9a1.5,1.5,0,0,1,1.5-1.5A1.56,1.56,0,0,1,9,16c0,.29,1,1,3,1,1.83,0,3-.89,3-1.5,0-1.27-.63-1.71-3.52-2.49C9.16,12.39,6,11.54,6,8c0-2.24,2.42-4,5.5-4S17,5.5,17,7.5a1.5,1.5,0,0,1-3,.14A4.21,4.21,0,0,0,11.5,7C9.94,7,9,7.69,9,8c0,1,.58,1.39,3.25,2.11,2.29.61,5.75,1.54,5.75,5.39C18,18,15.36,20,12,20Z" style="fill:#000"/></g></svg>
