<?xml version="1.0" ?><svg viewBox="0 0 24 24" xmlns="http://www.w3.org/2000/svg"><title/><g id="Snapchat"><path d="M23.63,17.52a7.46,7.46,0,0,1-5.07-4l2.19-1.71a1.5,1.5,0,0,0-1.2-2.66L18,9.45A7.79,7.79,0,0,0,16.6,3,5.9,5.9,0,0,0,12,1,5.9,5.9,0,0,0,7.4,3,7.79,7.79,0,0,0,6,9.47L4.46,9.18a1.49,1.49,0,0,0-1.21,2.64l2.2,1.71a7.49,7.49,0,0,1-5.08,4A.5.5,0,0,0,0,18c0,.62.4,1.37,1.83,1.37.28,0,.58,0,.86,0s.46,0,.65,0,.27,0,.27,0A2.21,2.21,0,0,1,4,20.5a.5.5,0,0,0,.5.5h2a5,5,0,0,1,2,.8A7.36,7.36,0,0,0,12,23a7.36,7.36,0,0,0,3.5-1.2,5,5,0,0,1,2-.8h2a.5.5,0,0,0,.5-.5,2.23,2.23,0,0,1,.35-1.15.78.78,0,0,1,.3,0c.2,0,.42,0,.65,0s.58,0,.86,0C23.6,19.41,24,18.66,24,18A.5.5,0,0,0,23.63,17.52Z" style="fill:#000"/></g></svg>
