<?xml version="1.0" ?><svg viewBox="0 0 24 24" xmlns="http://www.w3.org/2000/svg"><title/><g id="Twitter"><path d="M23.87,4.43a.5.5,0,0,0-.6-.1,4.76,4.76,0,0,1-.75.27A4.85,4.85,0,0,0,23.37,3a.5.5,0,0,0-.77-.53,10.59,10.59,0,0,1-2.53,1A5.05,5.05,0,0,0,16.5,2a5.71,5.71,0,0,0-3,.93C11.6,4,11.27,6.47,11.41,8a13,13,0,0,1-9-4.76A.53.53,0,0,0,2,3a.5.5,0,0,0-.4.25,5.35,5.35,0,0,0,.22,5.7c-.15-.1-.31-.22-.47-.35A.5.5,0,0,0,.5,9,5.73,5.73,0,0,0,3,13.64l-.39-.11A.5.5,0,0,0,2,14.2a6.48,6.48,0,0,0,4.19,3.62A9.22,9.22,0,0,1,.56,19a.5.5,0,0,0-.31.93A15.2,15.2,0,0,0,8,22H8a13.35,13.35,0,0,0,10-4.63,13.63,13.63,0,0,0,3.65-9.92A9.81,9.81,0,0,0,23.92,5,.5.5,0,0,0,23.87,4.43ZM8,21.5Z" style="fill:#000"/></g></svg>
