<?xml version="1.0" ?><svg viewBox="0 0 24 24" xmlns="http://www.w3.org/2000/svg"><title/><g data-name="Youtube 2" id="Youtube_2"><path d="M6,6.6v3.9a.5.5,0,0,0,1,0V6.6L9,1.69A.5.5,0,0,0,8,1.32L6.5,5.15,5,1.32A.5.5,0,0,0,4,1.69Z" style="fill:#000"/><path d="M9,9a2,2,0,0,0,4,0V6A2,2,0,0,0,9,6Zm1-3a1,1,0,0,1,2,0V9a1,1,0,0,1-2,0Z" style="fill:#000"/><path d="M16,11a2,2,0,0,0,1-.3.5.5,0,0,0,1-.2v-6a.5.5,0,0,0-1,0V9a1,1,0,0,1-2,0V4.5a.5.5,0,0,0-1,0V9A2,2,0,0,0,16,11Z" style="fill:#000"/><rect height="3" rx="0.75" ry="0.75" style="fill:#000" width="2" x="13" y="17"/><path d="M19.25,17h-.5a.75.75,0,0,0-.75.75V18h2v-.25A.75.75,0,0,0,19.25,17Z" style="fill:#000"/><path d="M20,12H4a3,3,0,0,0-3,3v5a3,3,0,0,0,3,3H20a3,3,0,0,0,3-3V15A3,3,0,0,0,20,12ZM6,20.5a.5.5,0,0,1-1,0V15H3.5a.5.5,0,1,1,0-1h4a.5.5,0,1,1,0,1H6Zm5-1.25c0,.06,0,.11,0,.17a.47.47,0,0,1,0,.08v1a.5.5,0,0,1-.5.5.49.49,0,0,1-.41-.23,1.73,1.73,0,0,1-.84.23h-.5A1.75,1.75,0,0,1,7,19.25V16.5a.5.5,0,0,1,1,0v2.75a.75.75,0,0,0,.75.75h.5a.75.75,0,0,0,.75-.75V16.5a.5.5,0,0,1,1,0Zm5,0A1.75,1.75,0,0,1,14.25,21h-.5a1.73,1.73,0,0,1-.84-.23.49.49,0,0,1-.41.23.5.5,0,0,1-.5-.5v-6a.5.5,0,0,1,1,0v1.68a1.73,1.73,0,0,1,.75-.18h.5A1.75,1.75,0,0,1,16,17.75Zm5-.75a.5.5,0,0,1-.5.5H18v.25a.75.75,0,0,0,.75.75h.75a.49.49,0,0,0,.42-.26.5.5,0,0,1,.86.51A1.48,1.48,0,0,1,19.5,21h-.75A1.75,1.75,0,0,1,17,19.25v-1.5A1.75,1.75,0,0,1,18.75,16h.5A1.75,1.75,0,0,1,21,17.75Z" style="fill:#000"/></g></svg>
