<svg xmlns="http://www.w3.org/2000/svg" version="1" viewBox="0 0 824 544"><path d="M204.4.7l-4.2.4-.7 20.7c-1.2 31.7.1 156.6 1.6 159 .7 1.1.9 2.7.6 3.6-.6 1.4-4.5 1.6-39.2 1.6H124v56H0v3c0 1.8.6 3.3 1.4 3.6 1.9.7 24.4 23.1 25.7 25.5.5 1.1 1.4 1.9 1.8 1.9.9 0 23.1 21.9 23.1 22.8 0 .4-33.2 33.4-37.2 37-.4.4-3.9 4.2-7.8 8.4-5.9 6.5-7 8.3-7 11.3v3.5h202v7.4c0 4.1.5 7.8 1 8.1.6.3 1 3.3 1 6.5 0 4 .5 6.2 1.4 6.7.7.4 1.6 2.4 1.9 4.3.9 6.2 2.6 11.5 3.6 11.8.6.2 1.1 1.5 1.1 2.8 0 1.4.7 2.7 1.5 3 .8.4 1.5 1.6 1.5 2.8 0 1.2 1.8 5.6 4 9.6 2.1 4.1 4.6 8.9 5.5 10.7.8 1.8 2.4 3.7 3.5 4.3 1.1.6 2 1.6 2 2.2 0 1.9 6.4 10.7 7.8 10.8.6 0 1.2.4 1.2 1 0 .5.7 1 1.5 1s1.5.5 1.5 1.1c0 2 5.5 8.7 8.5 10.5 3.6 2 6.5 4.9 6.5 6.4 0 .5.5 1 1.1 1 .7 0 2.2 1.1 3.4 2.4 1.2 1.3 4 3.5 6.2 4.9 2.2 1.4 4.6 3.2 5.4 3.9.8.8 3.9 2.7 6.9 4.2 7.3 3.6 11.1 5.8 12.8 7.3.7.7 2.7 1.3 4.3 1.3 1.6 0 2.9.4 2.9.8 0 1.2 7.3 4.2 10.2 4.2 1.4 0 2.8.7 3.2 1.5.3.9 1.8 1.5 3.6 1.5 1.6 0 3 .4 3 1 0 .5 2 1 4.5 1 3.1 0 4.7.5 5.1 1.5.4.9 1.9 1.5 4 1.5 1.8 0 5.3.8 7.6 1.8 3.9 1.5 9.1 1.7 57.3 1.7 40.9-.1 54-.4 57.5-1.4 2.5-.7 6.5-1.5 9-1.8 2.5-.3 4.9-1.1 5.3-1.9.5-.9 2.6-1.4 5.7-1.4 2.7 0 5.2-.5 5.5-1 .3-.6 1.7-1 2.9-1 1.3 0 2.9-.7 3.6-1.5.7-.8 2.3-1.5 3.6-1.5 1.2 0 2.6-.5 2.9-1 .3-.6 1.5-1 2.5-1 2.1 0 10.3-3.9 10.8-5.2.2-.4.9-.8 1.6-.8 1.4 0 7.8-3 8.6-4 .3-.4 2.1-1.5 4-2.6 1.9-1 4.3-2.7 5.4-3.7 1.1-.9 2.4-1.6 2.9-1.4.5.1 3.3-1.9 6.1-4.5s5.6-4.8 6.3-4.8c1.3 0 18.3-16.9 18.3-18.1 0-.7 4.9-6.9 8.9-11.4.9-1.1 2.1-2.7 2.4-3.5.4-.8 1.8-3.3 3.2-5.5 1.4-2.2 3.1-5.1 3.8-6.5.6-1.4 1.7-3.1 2.4-3.8.7-.7 1.3-2.2 1.3-3.2s.5-2.2 1-2.5c.6-.3 1-1.4 1-2.5 0-1 .7-2 1.5-2.4.9-.3 1.5-1.8 1.5-3.9 0-1.9.6-4 1.4-4.6 1.3-1.1 2-3.5 3.3-11.1.3-1.9 1.1-4.2 1.8-5 1.5-1.8 2.5-7.5 3.1-19.3l.5-8.7H800v-4c0-4-.6-4.7-24.5-28.5C762 313 751 301.6 751 301.1s-.5-1.1-1.1-1.3c-1.2-.4 2.8-5.1 5.9-6.7 1.2-.7 2.2-1.5 2.2-2 0-.4 9.4-10.2 21-21.8 18.4-18.4 21-21.4 21-24.2V242H677.8l.4-27.9.3-27.9-39.8-.7c-21.8-.4-40-1.1-40.3-1.6-.3-.5.2-1.9 1-3.1 1.4-2 1.6-12.3 1.6-91.5V0H473v186H327V0l-59.2.2c-32.6.1-61.2.3-63.4.5zm221.9 217.4c.9 8.9.5 51.4-.5 52.5-.5.4-1.7-.1-2.8-1.1-2-1.8-2.1-1.8-5.9.3-8.3 4.7-16.3 1.8-21.6-7.8-2.6-4.7-3-6.6-3-13 0-6.2.5-8.4 2.6-12.5 4.7-8.9 15.4-12.3 21.9-6.8 4.2 3.5 5 2.2 5-8.4 0-4.5.3-8.9.6-9.8 1.3-3.4 2.9-.5 3.7 6.6zM326 214.2c5.5 2.8 11.2 10 10.8 13.7-.4 3.9-2.2 3.2-6-2.4-6.2-9.3-12.5-11.5-20.8-7.3-12.5 6.3-14.9 32.4-4.2 44.9l3.5 4.1 7.3-.4c8.5-.4 11.9-2.3 14.8-8.4 2.8-6 5.6-7.2 5.6-2.5 0 3.6-5.2 10.7-9.8 13.4-17.7 10.3-35.1-6.5-32.8-31.6 1.1-11.9 5.6-19.4 14-23.3 6.4-3 11.9-3 17.6-.2zm178 1.3c0 .8-1.9 6.3-4.1 12.2-2.3 6-7 18.1-10.4 27-6.3 16.5-8.7 21.3-10.6 21.3-1.9 0-.5-4.7 7.6-25.5 4.2-11 8.9-23.2 10.3-27 1.4-3.9 3-7.6 3.5-8.3 1.3-1.7 3.7-1.5 3.7.3zm-128.3 15.2c5.7 4.5 8.3 10.3 8.3 18.2-.1 9.8-4.3 18.1-11.2 21.7-5.8 3-16.5.8-20.9-4.2-6.8-7.8-7.5-25-1.3-32.3 6.4-7.6 18-9.2 25.1-3.4zm87.7-1.3c5.6 3.3 8.8 9.1 8.4 15.3l-.3 4.8-13.7.5c-8.8.3-14.1.9-14.9 1.7-1.9 1.9.5 8.6 4.1 11.7 5.8 4.8 10.8 5.1 19.2 1 7.3-3.5 6.1 1.4-1.3 5.4-9 4.8-20.4 1-24.9-8.3-1.9-3.9-2.1-5.8-1.8-13.3.3-7.7.7-9.4 3.1-13.1 5.5-8.2 14-10.4 22.1-5.7zm-180 .5c1.2 1.8-6.4 6.1-21.8 12.5-3.5 1.5-3.8 1.8-2.5 3.1.8.8 6.4 3.7 12.4 6.3 8.8 3.8 11.1 5.2 11.3 7 .2 1.4-.2 2.2-1 2.2-2.9 0-30.3-14.5-30.6-16.2-.3-1.3 2.3-3 10.5-6.9 10.4-5 19-8.8 20.5-8.9.4 0 .9.4 1.2.9zm241.1 3.6c20.8 8.8 23.2 10.7 18.3 13.9-3.1 2-28.4 13.6-29.7 13.6-.6 0-1.1-.9-1.1-2 0-2.1 6.8-5.8 18.3-10 9.7-3.5 9-4.7-6.1-11-8.9-3.8-12.2-6-12.2-8.4 0-1.2 2.3-.5 12.5 3.9zm-51.7 97.7c-.4 23.5-.7 29.2-2.2 33.8-1 3-2 6.9-2.3 8.7-.3 1.8-1.1 3.8-1.9 4.4-.8.6-1.4 2-1.4 3s-.4 2.1-1 2.4c-.5.3-1 1.2-1 1.9 0 1.3-5.2 7.8-10.3 12.7-3.9 3.9-16.3 11.9-18.3 11.9-1.8 0-4.1.6-13 3.4-6 1.9-31 2.2-38.4.5-2.5-.6-6.1-1.3-8-1.5-1.9-.3-4.4-.9-5.5-1.4-1.1-.4-2.7-1.1-3.5-1.4-4.1-1.7-14.9-8.5-17.5-11.1-1.7-1.7-4.4-5-6-7.5-1.7-2.5-3.6-5.1-4.2-5.8-.7-.7-1.3-2.2-1.3-3.3 0-1-.4-1.9-1-1.9-.5 0-1-.8-1-1.9 0-1-.7-2.4-1.5-3.1-.8-.7-1.5-2.7-1.5-4.4 0-1.8-.4-3.6-.9-4.2-2-2.2-3.5-17.3-3.8-39.7l-.4-23.7h146.2l-.3 28.2z"/><path d="M403.2 233.6c-5.8 4.1-8 15.9-4.3 23.9 4 8.9 13.3 12.4 18.6 7.1 2.5-2.5 5.5-11.1 5.5-15.8 0-5.8-2.2-11.8-5.2-14.3-3.5-3-11-3.4-14.6-.9zm-42.7-1.2c-7.9 3.5-11.5 14.2-8.4 24.7 1.7 5.5 5.8 9 11.3 9.6 6.3.8 10.2-1.1 13.2-6.3 8-13.6-3.6-33.7-16.1-28zm88.7 1c-3 1.6-6.2 6.5-6.2 9.3 0 2.3.2 2.3 12 2.3h12v-3.1c0-2.2-1-4.1-3.4-6.5-2.8-2.8-4.1-3.4-7.7-3.4-2.4.1-5.4.6-6.7 1.4z"/></svg>