<svg id="svg" version="1.1" height="100px" width="100px" xmlns="http://www.w3.org/2000/svg" xmlns:xlink="http://www.w3.org/1999/xlink"><g id="svgg"><path id="path0" d="M50.000 21.155 C 50.000 32.715,49.913 33.232,48.232 31.710 C 39.571 23.872,22.867 24.286,13.179 32.578 C 2.998 41.293,2.087 62.732,11.434 73.652 C 19.868 83.505,38.709 85.397,47.250 77.249 L 50.000 74.626 50.000 77.813 L 50.000 81.000 56.500 81.000 L 63.000 81.000 63.000 48.548 L 63.000 16.096 56.946 12.548 C 53.617 10.597,50.692 9.000,50.446 9.000 C 50.201 9.000,50.000 14.470,50.000 21.155 M188.000 45.000 L 188.000 81.000 194.914 81.000 L 201.828 81.000 202.164 64.703 C 202.573 44.843,205.551 39.017,215.300 39.004 C 224.890 38.991,227.000 43.580,227.000 64.450 L 227.000 81.000 234.000 81.000 L 241.000 81.000 240.994 65.750 C 240.987 47.471,239.901 39.959,236.525 34.859 C 230.702 26.059,216.921 23.642,207.162 29.709 L 202.000 32.917 202.000 24.545 L 202.000 16.172 195.588 12.586 C 192.061 10.614,188.911 9.000,188.588 9.000 C 188.264 9.000,188.000 25.200,188.000 45.000 M250.000 45.000 L 250.000 81.000 256.500 81.000 L 263.000 81.000 263.000 77.953 L 263.000 74.906 267.084 78.188 C 278.199 87.120,299.216 81.323,305.626 67.556 C 318.396 40.132,289.106 14.040,265.250 31.589 L 263.000 33.244 263.000 24.670 L 263.000 16.096 256.946 12.548 C 253.617 10.597,250.692 9.000,250.446 9.000 C 250.201 9.000,250.000 25.200,250.000 45.000 M316.000 16.500 C 316.000 25.127,315.861 25.042,322.976 20.750 C 330.038 16.490,330.096 15.774,323.678 12.102 C 316.109 7.772,316.000 7.834,316.000 16.500 M381.649 14.238 C 381.302 17.132,381.013 22.313,381.009 25.750 C 380.999 32.938,381.212 32.762,376.444 29.526 C 355.693 15.445,330.337 38.284,337.883 64.260 C 342.464 80.030,364.995 88.106,377.597 78.494 L 381.000 75.898 381.000 78.449 C 381.000 80.941,381.162 81.000,388.014 81.000 L 395.027 81.000 394.764 48.419 L 394.500 15.838 388.391 12.407 L 382.281 8.976 381.649 14.238 M86.627 27.417 C 67.918 34.332,63.496 62.997,79.081 76.337 C 87.834 83.830,104.861 84.298,112.250 77.249 L 115.000 74.626 115.000 77.813 L 115.000 81.000 121.500 81.000 L 128.000 81.000 127.970 57.750 L 127.941 34.500 121.470 30.828 L 115.000 27.155 115.000 30.036 L 115.000 32.917 109.858 29.721 C 103.779 25.942,93.402 24.913,86.627 27.417 M147.655 27.459 C 135.467 31.804,132.127 45.278,141.155 53.683 C 144.324 56.634,147.975 57.911,157.820 59.515 C 169.364 61.396,171.492 63.599,166.545 68.545 C 162.532 72.559,147.194 70.553,142.969 65.462 C 141.129 63.246,140.496 63.602,137.165 68.723 C 133.546 74.286,133.872 74.978,142.272 79.555 C 159.782 89.095,182.013 80.846,181.993 64.816 C 181.980 54.315,176.921 50.319,160.670 47.971 C 152.219 46.750,150.000 45.617,150.000 42.522 C 150.000 36.855,160.138 35.105,168.185 39.383 L 172.667 41.767 176.388 37.179 L 180.108 32.590 177.804 30.824 C 171.772 26.200,156.094 24.450,147.655 27.459 M322.250 30.626 L 316.000 34.182 316.000 57.591 L 316.000 81.000 322.500 81.000 L 329.000 81.000 329.000 54.000 C 329.000 39.150,328.887 27.016,328.750 27.035 C 328.613 27.054,325.688 28.670,322.250 30.626 M40.717 40.670 C 55.006 47.450,49.592 69.000,33.600 69.000 C 23.740 69.000,18.994 64.056,19.007 53.800 C 19.021 42.029,29.819 35.499,40.717 40.670 M108.530 43.030 C 118.937 53.116,112.956 69.000,98.753 69.000 C 89.114 69.000,83.894 63.940,83.751 54.457 C 83.542 40.645,98.807 33.605,108.530 43.030 M287.701 40.960 C 293.129 44.269,295.746 51.515,293.939 58.227 C 290.136 72.349,270.992 73.434,265.551 59.835 C 260.210 46.487,275.457 33.494,287.701 40.960 M372.759 40.995 C 379.407 45.048,382.131 54.978,378.515 61.971 C 374.265 70.189,361.685 71.920,354.975 65.210 C 342.365 52.601,357.653 31.784,372.759 40.995 " stroke="none" fill="#000000" fill-rule="evenodd"></path></g></svg>
