<?xml version="1.0" standalone="no"?>
<!DOCTYPE svg PUBLIC "-//W3C//DTD SVG 20010904//EN"
 "http://www.w3.org/TR/2001/REC-SVG-20010904/DTD/svg10.dtd">
<svg version="1.0" xmlns="http://www.w3.org/2000/svg"
 width="1826.000000pt" height="374.000000pt" viewBox="0 0 1826.000000 374.000000"
 preserveAspectRatio="xMidYMid meet">
<metadata>
Created by potrace 1.14, written by Peter Selinger 2001-2017
</metadata>
<g transform="translate(0.000000,374.000000) scale(0.100000,-0.100000)"
fill="#000000" stroke="none">
<path d="M2444 3518 c-4 -6 -11 -230 -15 -497 -4 -267 -10 -496 -14 -508 -11
-34 -34 -28 -100 28 -81 68 -257 153 -375 183 -507 127 -1069 -55 -1323 -428
-202 -297 -269 -769 -167 -1172 93 -367 271 -596 585 -750 363 -178 785 -186
1110 -22 68 34 121 75 218 167 l67 64 0 -147 0 -146 293 2 292 3 0 1460 0
1460 -200 118 c-176 104 -346 197 -359 197 -3 0 -8 -5 -12 -12z m-579 -1354
c33 -8 103 -36 155 -61 79 -38 109 -59 177 -128 128 -127 183 -262 183 -446 0
-319 -213 -596 -516 -673 -80 -21 -271 -21 -372 -1 -114 23 -228 82 -293 153
-111 119 -149 232 -156 459 -6 183 8 263 69 386 79 157 242 282 418 322 80 18
248 13 335 -11z"/>
<path d="M8656 3453 c-3 -43 -8 -772 -12 -1621 l-6 -1542 310 0 310 0 6 143
c3 78 8 286 11 462 8 482 33 737 87 914 48 157 135 275 241 324 82 39 152 49
307 45 158 -5 219 -23 294 -89 52 -46 105 -145 130 -244 43 -168 49 -278 55
-925 l6 -625 313 -3 312 -2 0 547 c0 856 -27 1153 -123 1392 -97 240 -307 416
-587 492 -74 21 -108 23 -270 24 -165 0 -194 -3 -265 -23 -107 -32 -234 -94
-380 -186 l-120 -75 -3 377 -3 377 -222 122 c-238 130 -361 193 -376 193 -5 0
-12 -35 -15 -77z"/>
<path d="M11445 3503 c-4 -16 -9 -745 -12 -1621 l-5 -1592 293 2 294 3 0 133
c0 72 3 132 6 132 3 0 57 -41 120 -90 63 -50 152 -110 199 -134 338 -175 826
-126 1196 120 209 140 348 312 433 538 147 387 131 764 -45 1106 -165 319
-431 537 -777 636 -123 35 -357 45 -489 20 -185 -35 -330 -97 -510 -219 l-128
-86 -2 382 -3 382 -200 118 c-173 102 -346 197 -359 197 -2 0 -7 -12 -11 -27z
m1483 -1324 c26 -6 90 -32 142 -56 130 -62 218 -151 284 -284 60 -123 81 -227
73 -364 -7 -119 -26 -195 -73 -291 -75 -152 -201 -264 -366 -326 -71 -27 -100
-32 -203 -36 -144 -5 -210 8 -332 68 -219 108 -373 357 -373 605 0 310 227
595 542 679 64 18 241 20 306 5z"/>
<path d="M17376 3483 c-28 -216 -38 -349 -46 -618 -6 -170 -13 -318 -16 -327
-11 -36 -44 -25 -170 58 -109 72 -271 149 -369 175 -122 33 -339 37 -468 10
-610 -129 -1051 -784 -978 -1454 24 -218 86 -402 186 -553 247 -370 755 -601
1201 -544 187 23 329 83 497 209 l107 81 0 -33 c0 -19 3 -62 6 -96 10 -93 9
-93 342 -99 154 -3 277 -1 281 4 11 12 -14 2923 -25 2934 -10 9 -509 289 -529
296 -8 4 -14 -11 -19 -43z m-568 -1323 c107 -36 180 -81 256 -155 140 -137
216 -328 216 -544 0 -175 -52 -318 -156 -430 -75 -82 -160 -135 -274 -173 -88
-30 -105 -32 -230 -32 -121 0 -143 3 -215 28 -107 37 -183 85 -263 166 -80 79
-133 166 -169 275 -37 112 -38 275 -4 385 84 272 290 465 544 510 82 14 202 2
295 -30z"/>
<path d="M14423 3488 c-16 -29 -18 -63 -18 -298 0 -296 3 -310 58 -310 69 0
434 228 479 298 35 55 -6 103 -167 199 -153 92 -260 143 -300 143 -29 0 -37
-5 -52 -32z"/>
<path d="M4320 2760 c-189 -23 -386 -105 -536 -224 -486 -384 -620 -1188 -290
-1743 201 -338 548 -531 986 -550 253 -11 487 41 646 142 29 19 90 68 136 111
l83 76 5 -138 5 -139 290 0 290 0 3 1046 2 1045 -281 160 c-155 87 -288 161
-296 162 -12 3 -14 -17 -11 -122 2 -69 2 -126 1 -126 -1 0 -52 32 -114 70
-198 126 -314 175 -493 209 -123 24 -319 34 -426 21z m392 -574 c153 -29 274
-99 388 -223 98 -108 156 -219 184 -355 31 -148 14 -275 -54 -417 -76 -159
-235 -285 -416 -331 -98 -25 -292 -27 -397 -4 -228 50 -382 197 -442 419 -23
85 -31 276 -15 361 52 284 261 498 541 553 67 13 130 12 211 -3z"/>
<path d="M7040 2755 c-135 -20 -203 -40 -305 -90 -263 -129 -416 -342 -432
-600 -7 -120 14 -214 73 -335 38 -77 62 -110 128 -175 157 -157 321 -218 791
-295 241 -39 405 -93 460 -150 39 -41 38 -94 -4 -159 -40 -61 -111 -128 -158
-148 -102 -42 -271 -53 -453 -28 -225 30 -411 106 -519 212 -67 66 -86 73
-125 48 -47 -31 -202 -267 -231 -350 -21 -64 -8 -101 59 -162 57 -52 286 -184
406 -233 91 -38 266 -84 373 -99 191 -27 438 -6 612 51 432 141 677 457 651
840 -19 270 -111 421 -322 530 -150 78 -320 122 -705 183 -255 40 -363 84
-395 161 -31 74 -7 163 61 223 79 69 187 96 362 89 160 -7 231 -28 421 -124
l163 -82 162 199 c89 110 163 203 165 208 5 14 -149 123 -222 156 -106 49
-246 90 -386 115 -161 29 -486 36 -630 15z"/>
<path d="M14760 2605 c-113 -63 -240 -134 -282 -157 l-78 -43 0 -1058 0 -1057
293 2 292 3 -3 1205 c-2 663 -7 1208 -11 1212 -4 4 -99 -44 -211 -107z"/>
</g>
</svg>
