<svg id="svg" version="1.1" width="1000" height="255" xmlns="http://www.w3.org/2000/svg" xmlns:xlink="http://www.w3.org/1999/xlink" style="display: block;"><g id="svgg"><path id="path0" d="M176.800 2.074 C 174.050 3.168,171.350 4.186,170.800 4.337 C 167.511 5.241,163.628 7.065,163.428 7.800 C 163.001 9.374,163.182 100.419,163.614 101.226 C 164.092 102.118,182.029 102.441,183.626 101.586 C 184.371 101.188,184.401 100.571,184.422 85.286 C 184.453 62.007,184.775 60.485,191.319 52.723 C 193.005 50.724,198.171 46.800,199.118 46.800 C 199.307 46.800,200.618 46.327,202.031 45.748 C 213.623 41.001,224.756 53.155,220.216 65.600 C 219.855 66.590,219.513 67.580,219.457 67.800 C 217.108 76.998,203.838 83.940,193.500 81.379 L 192.400 81.107 192.400 91.393 L 192.400 101.680 200.900 101.487 C 219.092 101.076,229.371 95.343,237.280 81.200 C 243.471 70.128,242.115 48.472,234.713 40.195 C 234.431 39.880,233.673 38.942,233.029 38.111 C 223.222 25.462,200.711 22.436,187.563 31.999 L 184.800 34.009 184.800 17.778 C 184.800 -2.641,185.449 -1.366,176.800 2.074 M278.600 25.855 C 263.227 29.720,253.625 38.163,248.867 52.000 L 247.423 56.200 247.421 63.600 L 247.418 71.000 248.868 75.200 C 251.335 82.348,258.985 93.600,261.379 93.600 C 261.526 93.600,262.311 94.128,263.123 94.774 C 270.519 100.657,284.576 103.422,294.000 100.849 C 295.870 100.339,297.580 99.886,297.800 99.844 C 298.020 99.802,299.257 99.280,300.548 98.684 C 301.840 98.088,302.971 97.600,303.061 97.600 C 305.278 97.600,316.529 87.049,317.928 83.658 C 318.078 83.296,318.673 82.190,319.250 81.200 C 329.453 63.716,321.424 39.147,302.314 29.375 C 296.591 26.449,283.794 24.549,278.600 25.855 M0.480 26.880 C -0.029 27.389,-0.260 100.056,0.243 101.367 C 0.559 102.191,19.905 102.335,20.720 101.520 C 21.076 101.164,21.200 97.176,21.200 86.052 L 21.200 71.064 33.300 83.077 C 53.667 103.298,51.411 102.000,66.195 102.000 C 75.573 102.000,76.800 101.770,76.800 100.017 C 76.800 99.578,69.693 92.183,59.225 81.729 L 41.651 64.179 59.425 46.420 C 69.628 36.226,77.200 28.355,77.200 27.944 C 77.200 26.590,75.862 26.400,66.325 26.400 C 52.515 26.400,51.771 26.697,42.396 35.945 C 34.793 43.446,22.533 55.356,21.839 55.916 C 21.256 56.387,21.200 55.162,21.200 41.896 C 21.200 31.124,21.076 27.236,20.720 26.880 C 20.038 26.198,1.162 26.198,0.480 26.880 M81.696 27.195 C 81.046 28.236,80.966 100.016,81.614 101.226 C 82.132 102.194,101.660 102.453,102.276 101.500 C 102.454 101.225,102.690 94.493,102.800 86.540 L 103.000 72.081 116.655 85.572 C 134.036 102.745,132.625 101.974,146.674 101.990 C 161.528 102.007,161.967 103.297,139.519 80.977 L 122.600 64.153 139.685 47.177 C 149.082 37.840,157.092 29.602,157.485 28.872 C 158.735 26.550,158.122 26.400,147.408 26.400 C 132.754 26.400,133.527 26.012,117.990 41.200 C 106.101 52.823,103.201 55.600,102.953 55.600 C 102.869 55.600,102.800 49.328,102.800 41.662 C 102.800 28.667,102.751 27.679,102.069 27.062 C 100.843 25.953,82.397 26.073,81.696 27.195 M320.900 26.853 C 319.776 27.992,320.902 29.982,326.100 36.051 C 326.595 36.629,327.450 37.698,328.000 38.427 C 328.550 39.155,329.540 40.418,330.200 41.232 C 330.860 42.046,331.850 43.292,332.400 44.001 C 332.950 44.709,334.390 46.501,335.600 47.983 C 336.810 49.464,338.790 51.978,340.000 53.569 C 341.210 55.160,342.483 56.763,342.829 57.131 C 343.175 57.499,344.302 58.915,345.335 60.277 C 346.367 61.640,347.459 63.001,347.760 63.303 C 348.223 63.766,347.911 64.369,345.724 67.225 C 344.304 69.081,342.395 71.590,341.483 72.800 C 340.571 74.010,339.370 75.557,338.813 76.239 C 338.256 76.920,337.391 78.000,336.892 78.639 C 333.833 82.550,332.111 84.742,328.569 89.232 C 326.386 91.999,324.240 94.770,323.800 95.389 C 323.360 96.009,322.505 97.098,321.900 97.811 C 318.959 101.273,320.506 102.002,330.789 101.994 C 343.059 101.984,344.969 101.322,348.792 95.750 C 350.941 92.617,355.574 86.225,357.560 83.652 C 358.132 82.911,358.885 81.831,359.233 81.252 C 359.580 80.674,360.073 80.200,360.326 80.200 C 360.882 80.200,362.757 82.461,366.793 88.000 C 367.996 89.650,369.079 91.090,369.200 91.200 C 369.321 91.310,370.279 92.660,371.329 94.200 C 376.070 101.154,378.175 102.000,390.731 102.000 C 398.949 102.000,400.000 101.744,400.000 99.744 C 400.000 98.768,397.758 95.554,394.200 91.430 C 393.980 91.175,393.620 90.682,393.400 90.335 C 393.088 89.843,378.122 71.103,375.882 68.400 C 375.608 68.070,374.723 66.933,373.915 65.872 L 372.445 63.945 375.406 60.072 C 380.831 52.977,382.583 50.736,384.700 48.188 C 385.855 46.797,386.800 45.533,386.800 45.378 C 386.800 45.223,387.385 44.424,388.100 43.602 C 388.815 42.779,390.300 40.906,391.400 39.440 C 394.015 35.953,396.929 32.166,398.412 30.327 C 401.360 26.672,400.418 26.297,388.715 26.471 C 376.139 26.658,375.697 26.853,370.683 34.400 C 369.879 35.610,367.461 39.063,365.310 42.074 C 363.160 45.085,361.203 47.870,360.963 48.263 C 360.575 48.898,360.359 48.745,359.026 46.889 C 358.200 45.740,357.362 44.800,357.162 44.800 C 356.963 44.800,356.800 44.561,356.800 44.270 C 356.800 43.978,356.350 43.317,355.800 42.800 C 355.250 42.283,354.800 41.637,354.800 41.364 C 354.800 41.090,354.658 40.807,354.485 40.733 C 354.311 40.660,353.234 39.340,352.091 37.800 C 346.459 30.211,344.823 28.387,342.828 27.469 C 340.557 26.426,321.841 25.900,320.900 26.853 M289.719 46.562 C 299.228 49.039,305.475 59.781,302.365 68.310 C 301.906 69.569,301.425 70.960,301.297 71.400 C 301.024 72.335,299.035 74.991,297.600 76.337 C 290.610 82.893,280.018 82.893,273.166 76.337 C 260.090 63.826,272.221 42.005,289.719 46.562 " stroke="none" fill="#000000" fill-rule="evenodd"></path></g></svg>