<?xml version="1.0" standalone="no"?>
<!DOCTYPE svg PUBLIC "-//W3C//DTD SVG 20010904//EN"
 "http://www.w3.org/TR/2001/REC-SVG-20010904/DTD/svg10.dtd">
<svg version="1.0" xmlns="http://www.w3.org/2000/svg"
 width="1830.000000pt" height="464.000000pt" viewBox="0 0 1830.000000 464.000000"
 preserveAspectRatio="xMidYMid meet">
<metadata>
Created by potrace 1.14, written by Peter Selinger 2001-2017
</metadata>
<g transform="translate(0.000000,464.000000) scale(0.100000,-0.100000)"
fill="#000000" stroke="none">
<path d="M8020 4571 c-91 -37 -228 -89 -305 -115 -155 -53 -260 -102 -289
-135 -19 -21 -20 -52 -24 -1079 -3 -1010 10 -3127 20 -3137 34 -34 816 -52
891 -20 10 4 23 19 29 34 8 17 14 264 19 741 4 431 11 753 18 810 22 183 67
317 142 427 122 179 269 324 432 426 51 32 278 107 363 119 75 11 96 10 172
-6 334 -68 562 -398 521 -754 -11 -96 -91 -344 -138 -425 -128 -221 -411 -406
-709 -463 -122 -23 -327 -17 -424 12 -17 5 -18 -21 -18 -455 l0 -461 188 0
c103 0 254 5 335 10 702 45 1126 289 1453 836 157 262 222 554 211 954 -9 346
-71 612 -191 823 -43 74 -59 97 -194 259 -191 229 -478 390 -831 465 -114 25
-146 27 -336 28 -232 0 -322 -12 -495 -67 -135 -43 -239 -95 -363 -182 -60
-42 -111 -76 -113 -76 -2 0 -4 235 -4 523 -1 619 -10 885 -33 940 l-16 37 -73
-1 c-66 -1 -89 -7 -238 -68z"/>
<path d="M12679 3510 c-127 -15 -361 -92 -534 -175 -442 -213 -719 -536 -897
-1048 l-58 -168 0 -324 0 -325 51 -142 c80 -224 184 -422 331 -630 86 -122
165 -208 215 -234 21 -10 86 -52 145 -92 178 -121 384 -206 608 -251 383 -76
690 -47 1045 99 77 31 147 60 155 63 35 12 164 113 275 214 114 105 219 215
297 313 49 63 190 337 228 445 182 520 59 1158 -313 1620 -71 89 -222 236
-309 303 -95 73 -263 168 -355 202 -178 65 -406 111 -637 130 -141 11 -150 11
-247 0z m416 -944 c90 -24 231 -99 311 -165 86 -71 161 -169 214 -276 59 -121
75 -189 75 -335 0 -122 -1 -128 -43 -245 -51 -144 -89 -205 -196 -310 -289
-285 -735 -308 -1052 -53 -286 230 -378 618 -224 947 105 223 312 394 544 447
78 18 288 12 371 -10z"/>
<path d="M3945 3470 c-138 -9 -191 -18 -205 -35 -25 -30 -39 -1941 -21 -2923
6 -317 10 -405 20 -412 21 -12 108 -20 346 -29 276 -11 554 0 570 23 17 22 24
211 32 804 3 282 10 511 14 510 4 -2 171 -165 371 -363 766 -759 858 -843 993
-906 131 -62 151 -64 595 -64 369 0 408 2 438 18 66 36 38 100 -120 277 -47
52 -381 389 -742 749 l-657 654 778 781 c799 801 836 842 804 880 -27 32 -113
38 -519 34 -448 -5 -450 -5 -607 -83 -123 -61 -236 -158 -610 -525 -395 -387
-684 -666 -711 -685 l-21 -14 -8 603 c-4 332 -10 619 -14 637 -5 23 -15 38
-33 47 -57 27 -425 39 -693 22z"/>
<path d="M14635 3470 c-125 -7 -143 -13 -151 -46 -13 -51 49 -147 268 -410 31
-38 112 -139 179 -224 68 -85 193 -243 278 -350 85 -107 215 -271 290 -365 74
-93 154 -194 178 -224 24 -29 43 -57 43 -62 0 -23 -196 -282 -645 -852 -406
-516 -575 -738 -581 -764 -21 -80 83 -102 489 -103 295 0 471 21 562 67 69 36
131 103 248 267 99 141 227 317 444 614 13 17 30 32 38 32 7 0 38 -28 68 -62
57 -66 347 -452 456 -607 127 -181 226 -253 396 -288 77 -15 141 -18 430 -18
320 0 342 1 380 20 100 50 76 102 -230 485 -49 62 -252 316 -450 563 -454 567
-507 637 -496 651 5 6 75 99 156 206 82 107 218 282 304 389 86 107 165 209
176 227 11 17 64 87 118 155 135 172 416 537 444 578 35 51 31 79 -14 99 -34
15 -81 17 -418 16 -595 -1 -627 -13 -826 -308 -45 -66 -172 -248 -282 -404
-169 -240 -201 -281 -214 -270 -8 6 -40 45 -70 85 -30 40 -59 73 -64 73 -5 0
-17 17 -28 38 -10 20 -29 46 -41 57 -12 11 -29 33 -37 50 -14 26 -78 111 -297
395 -160 206 -210 244 -351 265 -90 13 -536 37 -610 33 -16 -1 -79 -4 -140 -8z"/>
<path d="M148 3461 c-31 -3 -60 -9 -64 -14 -4 -4 -11 -163 -15 -355 -9 -424
-10 -2878 -1 -2946 6 -44 10 -51 37 -59 39 -12 645 -22 769 -12 52 4 103 13
113 20 17 13 18 50 23 688 l5 676 570 -562 c314 -309 597 -585 630 -613 78
-67 170 -129 231 -156 111 -48 131 -51 496 -55 453 -6 555 6 571 67 9 33 -81
128 -867 917 l-709 712 653 658 c359 362 718 727 797 811 221 235 233 227
-347 227 -481 0 -512 -4 -655 -74 -105 -52 -186 -122 -505 -435 -584 -574
-842 -818 -853 -807 -8 8 -13 210 -16 646 -6 591 -7 636 -24 652 -16 17 -48
18 -400 20 -210 0 -408 -2 -439 -6z"/>
</g>
</svg>
