<svg id="svg" version="1.1" width="400" height="268" xmlns="http://www.w3.org/2000/svg" xmlns:xlink="http://www.w3.org/1999/xlink" style="display: block;"><g id="svgg"><path id="path0" d="M90.000 134.000 L 90.000 268.000 200.000 268.000 L 310.000 268.000 310.000 222.000 L 310.000 176.000 247.000 176.000 L 184.000 176.000 184.000 111.000 C 184.000 49.074,183.915 46.000,182.200 46.000 C 181.210 46.000,179.973 45.602,179.450 45.115 C 178.928 44.629,174.450 42.093,169.500 39.479 C 161.906 35.470,155.533 32.159,134.230 21.152 C 133.004 20.519,130.988 19.471,129.750 18.824 C 128.512 18.178,122.775 15.205,117.000 12.217 C 111.225 9.230,106.073 6.384,105.550 5.893 C 105.028 5.402,104.035 5.000,103.344 5.000 C 102.654 5.000,100.431 3.875,98.405 2.500 C 96.379 1.125,93.659 0.000,92.360 0.000 L 90.000 0.000 90.000 134.000 M107.500 14.447 C 111.350 16.427,115.175 18.416,116.000 18.868 C 116.825 19.320,118.400 20.130,119.500 20.668 C 120.600 21.207,123.075 22.466,125.000 23.466 C 126.925 24.467,129.175 25.600,130.000 25.984 C 130.825 26.368,134.200 28.175,137.500 30.000 C 143.163 33.131,144.503 33.825,148.750 35.824 C 149.713 36.277,151.850 37.366,153.500 38.245 C 155.150 39.124,157.175 40.126,158.000 40.472 C 158.825 40.818,163.550 43.266,168.500 45.912 L 177.500 50.724 177.758 113.362 L 178.015 176.000 137.008 176.000 L 96.000 176.000 96.000 92.525 L 96.000 9.050 98.250 9.948 C 99.487 10.443,103.650 12.467,107.500 14.447 M171.000 182.513 C 171.000 182.796,161.100 192.996,149.000 205.180 L 127.000 227.334 127.000 217.667 L 127.000 208.000 123.000 208.000 L 119.000 208.000 118.963 221.750 L 118.926 235.500 108.093 246.750 C 102.135 252.938,96.976 258.000,96.630 258.000 C 96.283 258.000,96.000 240.900,96.000 220.000 L 96.000 182.000 133.500 182.000 C 154.125 182.000,171.000 182.231,171.000 182.513 M305.000 222.500 L 305.000 263.000 244.500 263.000 L 184.000 263.000 184.000 222.500 L 184.000 182.000 244.500 182.000 L 305.000 182.000 305.000 222.500 M177.781 221.193 L 177.500 233.500 175.862 228.446 C 174.961 225.666,173.311 221.166,172.195 218.446 C 171.079 215.726,169.889 212.238,169.550 210.697 C 168.972 208.063,168.658 207.911,164.357 208.197 L 159.778 208.500 157.515 214.500 C 147.909 239.960,147.902 240.000,152.916 240.000 C 156.537 240.000,156.979 239.701,158.152 236.455 C 159.980 231.402,169.138 231.437,169.999 236.500 C 170.447 239.134,170.966 239.538,174.254 239.810 L 178.000 240.121 178.000 251.560 L 178.000 263.000 139.833 263.000 C 118.842 263.000,101.854 262.809,102.083 262.576 C 102.313 262.342,107.196 257.167,112.936 251.076 L 123.372 240.000 131.186 240.000 L 139.000 240.000 139.000 236.557 C 139.000 233.251,138.840 233.103,134.945 232.807 L 130.890 232.500 154.195 209.113 L 177.500 185.727 177.781 197.306 C 177.936 203.675,177.936 214.424,177.781 221.193 M188.000 211.500 C 188.000 214.917,188.095 215.000,192.000 215.000 L 196.000 215.000 196.000 227.500 L 196.000 240.000 200.000 240.000 L 204.000 240.000 204.000 227.500 L 204.000 215.000 208.000 215.000 C 211.905 215.000,212.000 214.917,212.000 211.500 L 212.000 208.000 200.000 208.000 L 188.000 208.000 188.000 211.500 M229.021 210.485 C 223.505 214.554,221.616 223.404,224.338 232.425 C 226.926 241.003,245.997 243.836,246.002 235.643 L 246.004 232.500 240.117 232.833 C 233.114 233.229,231.000 231.276,231.000 224.412 C 231.000 216.527,235.625 213.501,243.131 216.476 C 245.707 217.497,247.701 210.986,245.341 209.260 C 242.213 206.973,232.826 207.677,229.021 210.485 M260.000 224.000 L 260.000 240.000 264.000 240.000 L 268.000 240.000 268.000 233.500 L 268.000 227.000 273.500 227.000 L 279.000 227.000 279.000 233.500 L 279.000 240.000 282.500 240.000 L 286.000 240.000 286.000 224.000 L 286.000 208.000 282.500 208.000 L 279.000 208.000 279.000 214.000 L 279.000 220.000 273.500 220.000 L 268.000 220.000 268.000 214.000 L 268.000 208.000 264.000 208.000 L 260.000 208.000 260.000 224.000 M165.882 224.250 C 165.964 225.471,165.262 226.000,163.561 226.000 L 161.121 226.000 162.772 221.250 C 164.479 216.335,165.407 217.230,165.882 224.250 " stroke="none" fill="#000000" fill-rule="evenodd"></path></g></svg>