<svg xmlns="http://www.w3.org/2000/svg" version="1" viewBox="0 0 263 321"><path d="M1 160.6V321h262l-.2-54.8-.3-54.7-76.2-.3-76.3-.2V56.5L72.3 37C51.5 26.3 27 13.6 17.8 8.8L1 .1v160.5zM77.5 45.9l27 14 .3 75.5.2 75.6H6V8.9l22.3 11.5c12.2 6.3 34.4 17.8 49.2 25.5zm16.7 176.8c-2.8 3.2-15.7 16.4-28.6 29.3L42 275.5V251h-7v31.5L20.5 297 6 311.5V217h93.2l-5 5.7zM257 266.5V316H110v-99h147v49.5zm-152.2 1.7l-.3 16.3-6-17-6-17-4.1-.3c-2.5-.2-4.5.2-5.1 1-1 1.4-12.3 33.3-12.3 35 0 .5 1.7.8 3.8.6 3.4-.3 3.8-.7 5.2-4.6l1.4-4.2h13.4l1.1 4.5c1.1 4.4 1.2 4.5 5.1 4.5h4v29H9.5L24 301.5 38.5 287H57v-6.9l-5.7-.3-5.8-.3L75 249.6l29.5-29.8.3 16.1c.1 8.8.1 23.4 0 32.3z"/><path d="M168.3 251.9c-5.8 2.7-8.7 8.3-8.7 17.2 0 7.2 1.9 11.7 6.6 15.2 3.1 2.3 10.8 3.3 15.8 2 3-.8 3.5-1.4 3.8-4.2.3-3.1.2-3.3-2-2.7-5.4 1.5-9.4 1.6-11.8.4-4.7-2.5-6.1-12.1-2.9-19.2 1.7-3.7 5.7-5 10.9-3.6 3.4.9 4.5.9 5.1-.2 3.7-5.8-7.5-9.1-16.8-4.9zM117 254c0 2.9.1 3 5 3h4.9l.3 14.7.3 14.8h7l.3-14.8.3-14.7h4.9c4.9 0 5-.1 5-3v-3h-28v3zm87.2 14.7l.3 17.8h7l.3-7.8.3-7.7h13.8l.3 7.7.3 7.8h7l.3-17.8.2-17.7h-8v14h-14v-14h-8l.2 17.7z"/></svg>