<?xml version="1.0" standalone="no"?>
<!DOCTYPE svg PUBLIC "-//W3C//DTD SVG 20010904//EN"
 "http://www.w3.org/TR/2001/REC-SVG-20010904/DTD/svg10.dtd">
<svg version="1.0" xmlns="http://www.w3.org/2000/svg"
 width="1280.000000pt" height="250.000000pt" viewBox="0 0 1280.000000 250.000000"
 preserveAspectRatio="xMidYMid meet">
<metadata>
Created by potrace 1.14, written by Peter Selinger 2001-2017
</metadata>
<g transform="translate(0.000000,250.000000) scale(0.100000,-0.100000)"
fill="#000000" stroke="none">
<path d="M0 1540 l0 -960 385 0 385 0 0 360 0 361 83 -3 82 -3 3 -358 2 -357
386 0 386 0 -4 357 c-5 432 -5 432 -106 533 -37 37 -82 73 -99 81 -18 7 -33
16 -33 19 0 3 15 14 33 25 62 36 134 114 160 173 46 103 59 246 32 361 -44
187 -190 326 -379 362 -27 5 -332 9 -682 9 l-634 0 0 -960z m940 380 l0 -211
-82 3 -83 3 -3 208 -2 207 85 0 85 0 0 -210z"/>
<path d="M4990 2280 l0 -220 -288 0 -288 0 -109 -386 c-60 -212 -111 -380
-114 -373 -3 8 -50 181 -106 384 l-101 370 -352 3 c-194 1 -352 1 -352 0 0 -2
126 -333 279 -736 l279 -732 -99 -267 c-55 -147 -99 -270 -99 -275 0 -4 159
-8 354 -8 l354 0 109 288 c61 158 202 527 314 821 l204 534 5 -549 5 -549 362
-3 363 -2 2 527 3 528 123 3 122 3 0 209 0 210 -125 0 -125 0 0 220 0 220
-360 0 -360 0 0 -220z"/>
<path d="M6030 1540 l0 -960 365 0 365 0 2 528 3 527 75 0 75 0 3 -528 2 -527
365 0 366 0 -3 618 -3 617 -28 58 c-40 80 -111 148 -204 194 -71 35 -84 38
-182 41 -156 6 -333 -41 -427 -113 -18 -14 -35 -25 -38 -25 -3 0 -6 119 -6
265 l0 265 -365 0 -365 0 0 -960z"/>
<path d="M2395 2126 c-180 -30 -304 -78 -410 -159 -105 -79 -155 -172 -155
-287 l0 -60 340 0 340 0 0 90 0 90 75 0 75 0 0 -140 c0 -138 0 -140 -22 -140
-234 -5 -484 -22 -538 -36 -239 -62 -344 -214 -326 -473 21 -301 179 -450 477
-451 155 0 294 55 389 157 l49 51 3 -91 3 -92 338 -3 337 -2 0 524 c0 345 -4
543 -11 578 -20 95 -66 177 -143 253 -82 82 -169 131 -301 171 -80 23 -110 27
-265 30 -115 2 -203 -1 -255 -10z m265 -1001 l0 -165 -80 0 -80 0 0 165 0 165
80 0 80 0 0 -165z"/>
<path d="M8255 2124 c-171 -27 -264 -64 -348 -142 -130 -121 -191 -289 -204
-562 -11 -231 33 -450 117 -578 48 -75 136 -154 213 -191 119 -59 306 -91 526
-91 386 0 615 107 728 340 43 90 78 209 65 222 -5 5 -172 7 -373 6 l-364 -3
-3 -107 -3 -108 -74 0 -75 0 0 175 0 175 453 2 452 3 3 70 c2 39 -2 114 -8
167 -43 377 -214 559 -584 623 -111 19 -396 19 -521 -1z m355 -469 l0 -145
-75 0 -75 0 0 145 0 145 75 0 75 0 0 -145z"/>
<path d="M10002 2129 c-35 -4 -99 -17 -142 -28 -233 -59 -360 -208 -422 -496
-17 -80 -17 -408 0 -500 53 -290 185 -445 430 -505 215 -53 559 -53 770 1 203
51 323 163 393 366 35 101 50 219 50 390 0 249 -40 412 -133 545 -40 57 -114
121 -173 151 -53 26 -167 58 -265 72 -103 16 -400 18 -508 4z m328 -774 l0
-445 -75 0 -75 0 0 445 0 445 75 0 75 0 0 -445z"/>
<path d="M12127 2095 c-82 -17 -156 -50 -219 -98 l-48 -37 0 65 0 65 -350 0
-350 0 0 -755 0 -755 360 0 360 0 2 528 3 527 73 3 72 3 0 -531 0 -530 375 0
376 0 -3 598 -3 597 -32 65 c-54 111 -168 208 -291 249 -73 25 -217 27 -325 6z"/>
</g>
</svg>
