<?xml version="1.0" standalone="no"?>
<!DOCTYPE svg PUBLIC "-//W3C//DTD SVG 20010904//EN"
 "http://www.w3.org/TR/2001/REC-SVG-20010904/DTD/svg10.dtd">
<svg version="1.0" xmlns="http://www.w3.org/2000/svg"
 width="1298.000000pt" height="456.000000pt" viewBox="0 0 1298.000000 456.000000"
 preserveAspectRatio="xMidYMid meet">
<metadata>
Created by potrace 1.14, written by Peter Selinger 2001-2017
</metadata>
<g transform="translate(0.000000,456.000000) scale(0.100000,-0.100000)"
fill="#000000" stroke="none">
<path d="M40 2290 l0 -1270 6460 0 6460 0 0 1270 0 1270 -6460 0 -6460 0 0
-1270z m2213 691 c208 -54 343 -193 366 -376 5 -38 7 -73 4 -77 -2 -5 -75 -8
-162 -8 l-158 0 -12 53 c-25 113 -111 167 -267 167 -91 0 -141 -15 -182 -53
-51 -47 -63 -100 -38 -161 20 -49 90 -77 344 -142 249 -64 318 -93 402 -170
100 -93 140 -213 119 -362 -35 -252 -266 -405 -609 -404 -297 0 -499 100 -594
294 -34 68 -64 207 -50 230 3 4 76 8 163 8 l157 0 12 -60 c17 -79 61 -136 137
-175 56 -29 64 -30 184 -30 96 1 135 5 162 18 122 56 155 171 73 251 -45 44
-121 73 -343 131 -338 88 -459 181 -490 375 -40 250 134 456 430 509 80 15
261 5 352 -18z m7352 5 c171 -46 318 -161 388 -306 36 -74 64 -181 52 -200 -4
-6 -69 -10 -159 -10 l-153 0 -21 58 c-28 74 -67 120 -133 157 -51 28 -61 30
-164 30 -100 0 -115 -3 -166 -28 -134 -65 -212 -213 -226 -426 -10 -159 39
-328 122 -420 21 -22 67 -55 103 -73 63 -31 73 -33 177 -33 94 0 117 3 160 23
86 40 151 121 170 212 3 19 9 43 11 53 5 16 -7 17 -160 17 l-166 0 0 125 0
125 315 0 315 0 0 -405 0 -405 -109 0 -108 0 -13 75 c-7 41 -14 75 -16 75 -2
0 -22 -18 -45 -41 -100 -100 -209 -141 -374 -141 -351 0 -611 209 -697 560
-27 109 -29 300 -4 410 71 319 279 528 577 581 74 13 251 6 324 -13z m-6341
-301 c93 -156 172 -282 176 -280 5 3 82 131 171 285 l164 279 188 1 c103 0
187 -2 187 -4 0 -2 -124 -210 -275 -460 l-275 -456 0 -285 0 -285 -170 0 -170
0 0 293 0 293 -270 448 c-148 247 -270 451 -270 453 0 1 85 3 188 3 l188 0
168 -285z m1666 -206 l305 -491 3 491 2 491 155 0 155 0 0 -745 0 -745 -167 0
-168 0 -305 493 -305 492 -3 -493 -2 -492 -155 0 -155 0 0 745 0 745 168 0
167 0 305 -491z m2050 351 l0 -140 -390 0 -390 0 0 -155 0 -155 360 0 360 0 0
-130 0 -130 -360 0 -360 0 0 -180 0 -180 400 0 400 0 0 -140 0 -140 -570 0
-570 0 0 745 0 745 560 0 560 0 0 -140z m1186 126 c119 -32 222 -116 272 -224
25 -52 27 -67 27 -182 0 -114 -2 -130 -26 -181 -33 -71 -86 -129 -143 -160
l-45 -23 47 -26 c104 -56 146 -158 162 -392 10 -152 20 -210 46 -260 l15 -28
-170 0 -169 0 -11 33 c-7 17 -18 97 -27 177 -18 186 -22 206 -50 262 -46 92
-95 107 -346 108 l-178 0 0 -290 0 -290 -170 0 -170 0 0 745 0 745 443 0 c342
0 454 -3 493 -14z m2568 -271 c93 -156 172 -282 176 -280 5 3 82 131 171 285
l164 279 188 1 c103 0 187 -2 187 -4 0 -2 -124 -210 -275 -460 l-275 -456 0
-285 0 -285 -170 0 -170 0 0 293 0 293 -270 448 c-148 247 -270 451 -270 453
0 1 85 3 188 3 l188 0 168 -285z"/>
<path d="M7570 2504 l0 -206 218 4 c210 3 218 4 261 28 63 36 86 84 85 180 0
84 -17 126 -61 158 -49 35 -102 42 -305 42 l-198 0 0 -206z"/>
</g>
</svg>
