<svg id="svg" version="1.1" xmlns="http://www.w3.org/2000/svg" height="100" width="100" viewBox="0 0 100 100" xmlns:xlink="http://www.w3.org/1999/xlink"><g id="svgg"><path id="path0" d="M118.737 84.763 L 105.000 98.526 105.000 123.000 L 105.000 147.473 118.236 160.737 L 131.472 174.000 167.736 174.000 L 204.000 174.000 204.000 195.000 L 204.000 216.000 200.500 216.000 L 197.000 216.000 197.000 231.500 L 197.000 247.000 206.763 247.000 L 216.526 247.000 230.763 232.737 L 245.000 218.475 245.000 191.973 L 245.000 165.471 232.236 152.736 L 219.472 140.000 181.236 140.000 L 143.000 140.000 143.000 124.000 L 143.000 108.000 174.500 108.000 L 206.000 108.000 206.000 116.500 L 206.000 125.000 225.500 125.000 L 245.000 125.000 245.000 111.173 L 245.000 97.346 231.750 84.183 L 218.500 71.020 175.487 71.010 L 132.473 71.000 118.737 84.763 M165.843 189.697 L 154.000 201.394 154.000 256.464 L 154.000 311.534 164.766 322.267 L 175.533 333.000 223.016 332.964 L 270.500 332.929 281.774 322.024 L 293.048 311.120 292.774 293.810 L 292.500 276.500 274.750 276.227 L 257.000 275.954 257.000 287.477 L 257.000 299.000 224.500 299.000 L 192.000 299.000 192.000 255.000 L 192.000 211.000 195.500 211.000 L 199.000 211.000 199.000 194.500 L 199.000 178.000 188.343 178.000 L 177.685 178.000 165.843 189.697 M251.000 194.000 L 251.000 210.000 255.000 210.000 L 259.000 210.000 259.000 221.500 L 259.000 233.000 277.000 233.000 L 295.000 233.000 295.000 217.265 L 295.000 201.530 283.266 189.765 L 271.531 178.000 261.266 178.000 L 251.000 178.000 251.000 194.000 M105.000 207.766 L 105.000 224.533 116.266 235.766 L 127.531 247.000 138.266 247.000 L 149.000 247.000 149.000 230.500 L 149.000 214.000 145.500 214.000 L 142.000 214.000 142.000 202.500 L 142.000 191.000 123.500 191.000 L 105.000 191.000 105.000 207.766 " stroke="none" fill="#000000" fill-rule="evenodd"></path></g></svg>
