<?xml version="1.0" standalone="no"?>
<!DOCTYPE svg PUBLIC "-//W3C//DTD SVG 20010904//EN"
 "http://www.w3.org/TR/2001/REC-SVG-20010904/DTD/svg10.dtd">
<svg version="1.0" xmlns="http://www.w3.org/2000/svg"
 width="426.000000pt" height="556.000000pt" viewBox="0 0 426.000000 556.000000"
 preserveAspectRatio="xMidYMid meet">
<metadata>
Created by potrace 1.14, written by Peter Selinger 2001-2017
</metadata>
<g transform="translate(0.000000,556.000000) scale(0.100000,-0.100000)"
fill="#000000" stroke="none">
<path d="M531 5121 l-271 -279 0 -482 0 -482 261 -269 261 -269 729 0 729 0 0
-420 0 -420 -70 0 -70 0 0 -310 0 -310 199 0 199 0 281 289 281 289 0 530 0
530 -259 251 -259 251 -761 0 -761 0 0 320 0 320 630 0 630 0 0 -170 0 -170
390 0 390 0 0 278 0 279 -265 261 -264 262 -864 0 -865 0 -271 -279z"/>
<path d="M1477 3027 l-237 -232 0 -1106 0 -1107 219 -211 219 -211 945 0 946
0 226 217 227 218 -7 345 c-4 190 -8 346 -8 347 -1 0 -161 4 -354 8 l-353 8 0
-232 0 -231 -650 0 -650 0 0 880 0 880 70 0 70 0 0 330 0 330 -212 -1 -213 0
-238 -232z"/>
<path d="M3180 2940 l0 -320 80 0 80 0 0 -230 0 -230 360 0 360 0 0 311 0 311
-231 239 -231 239 -209 0 -209 0 0 -320z"/>
<path d="M260 2661 l0 -339 229 -221 229 -221 211 0 211 0 0 330 0 330 -70 0
-70 0 0 230 0 230 -370 0 -370 0 0 -339z"/>
</g>
</svg>
